PathFileType	4	(X/Y/Z)	Kaydara																																																																																																																									
DataRate	CameraRate	NumFrames	NumMarkers	Units	OrigDataRate	OrigDataStartFrame	OrigNumFrames																																																																																																																					
30	30	4	41	mm	30	100	198																																																																																																																					
Frame#	Time	NABA_LFHD			NABA_RFHD			NABA_LBHD			NABA_RBHD			NABA_LFTShould			NABA_RFTShould			NABA_LRRShould			NABA_RRRShould			NABA_T10			NABA_STRN			NABA_TRUN			NABA_LSHO			NABA_LUPA			NABA_LELB			NABA_LFRM			NABA_LWRA			NABA_LWRB			NABA_LFIN			NABA_RSHO			NABA_RUPA			NABA_RELB			NABA_RFRM			NABA_RWRA			NABA_RWRB			NABA_RFIN			NABA_LFWT			NABA_RFWT			NABA_LBWT			NABA_RBWT			NABA_LTHI			NABA_LKNE			NABA_LSHN			NABA_LANK			NABA_LHEE			NABA_LTOE			NABA_RTHI			NABA_RKNE			NABA_RSHN			NABA_RANK			NABA_RHEE			NABA_RTOE		
		X1	Y1	Z1	X2	Y2	Z2	X3	Y3	Z3	X4	Y4	Z4	X5	Y5	Z5	X6	Y6	Z6	X7	Y7	Z7	X8	Y8	Z8	X9	Y9	Z9	X10	Y10	Z10	X11	Y11	Z11	X12	Y12	Z12	X13	Y13	Z13	X14	Y14	Z14	X15	Y15	Z15	X16	Y16	Z16	X17	Y17	Z17	X18	Y18	Z18	X19	Y19	Z19	X20	Y20	Z20	X21	Y21	Z21	X22	Y22	Z22	X23	Y23	Z23	X24	Y24	Z24	X25	Y25	Z25	X26	Y26	Z26	X27	Y27	Z27	X28	Y28	Z28	X29	Y29	Z29	X30	Y30	Z30	X31	Y31	Z31	X32	Y32	Z32	X33	Y33	Z33	X34	Y34	Z34	X35	Y35	Z35	X36	Y36	Z36	X37	Y37	Z37	X38	Y38	Z38	X39	Y39	Z39	X40	Y40	Z40	X41	Y41	Z41
																																																																																																																												
100	3.31	273.46735	1560.9227	-368.78704	102.85842	1546.27029	-347.00417	290.07675	1518.37982	-487.21169	71.05932	1520.17227	-441.20903	260.26937	1279.44359	-367.09484	124.16811	1277.32224	-372.93831	266.42309	1326.17371	-490.83809	115.58428	1324.7464	-490.23254	202.42786	1158.8884	-550.92018	191.579	1226.77048	-320.63431	189.44811	1132.35619	-267.45541	360.70202	1294.13849	-416.51283	415.68901	1052.4894	-407.91134	429.57558	977.60628	-365.8548	420.0919	900.28404	-358.64223	368.73268	799.58969	-224.27647	440.12394	796.01578	-230.42103	424.51332	766.623	-165.2492	31.55525	1295.00031	-427.98946	-2.00768	1106.13052	-520.06153	-38.11656	978.79745	-498.59837	-42.82503	883.56155	-503.69717	10.10602	748.85895	-433.50517	-63.06453	739.85092	-445.59589	-52.58544	698.95988	-417.15698	331.13079	897.32208	-349.68796	63.78027	893.02284	-334.7028	261.79642	967.43408	-514.94476	97.14665	969.00864	-511.55872	316.48233	631.5667	-550.61909	308.76316	472.3917	-540.87566	242.40841	281.90851	-596.90491	256.88421	172.54505	-724.75319	196.21052	156.36078	-794.72672	216.97697	59.02389	-640.34752	66.40948	599.90284	-397.80708	90.36551	484.72759	-238.39634	107.64763	322.72972	-197.22301	111.81756	121.19549	-184.50579	169.51046	61.56364	-228.08296	120.62425	78.79369	-38.45232
101	3.343	272.00987	1565.85007	-328.17284	101.49679	1552.12173	-305.48586	287.94832	1522.09045	-446.12774	69.25831	1525.24612	-399.21017	258.7871	1284.03305	-322.89993	122.99744	1280.22995	-328.72448	264.5719	1331.24084	-446.86203	113.73204	1328.14209	-445.79433	202.19309	1162.6004	-506.68438	190.77719	1230.07072	-276.3607	189.26479	1136.50963	-221.88616	359.14234	1298.36777	-372.33597	413.6285	1055.38986	-369.25934	427.06532	979.78989	-328.53096	417.23568	902.54189	-324.08554	364.20086	796.47591	-194.56968	436.44257	792.89757	-200.14843	420.01362	761.31737	-136.41244	29.89403	1297.13196	-382.62672	-4.3592	1106.4917	-472.95181	-39.90721	979.29962	-449.08779	-45.13417	884.64424	-454.22974	8.13817	749.52629	-386.15414	-65.06096	740.78682	-396.44287	-54.37273	699.85291	-368.25779	328.73627	898.20541	-301.6868	62.6244	901.62537	-289.99485	263.81027	969.26163	-467.41127	99.21621	978.1543	-465.81665	314.35749	632.258	-502.35867	310.22257	473.83232	-492.07439	247.80483	286.26087	-562.49168	263.62789	190.48742	-701.13472	203.47256	181.9545	-771.54312	220.10469	57.3405	-633.59802	62.08976	608.73615	-357.81353	92.95731	492.79747	-200.5271	109.38188	322.90852	-166.9515	112.38697	120.44239	-169.52255	167.25077	64.97266	-220.51493	131.44536	63.01026	-25.91146
102	3.377	270.86233	1572.72324	-287.25323	100.45947	1559.01398	-263.39354	286.06644	1528.68774	-405.02048	67.68622	1531.9603	-356.81664	257.94313	1292.86469	-279.28493	122.48927	1287.81906	-285.80101	264.22136	1338.48206	-403.73081	113.69013	1334.05075	-403.62629	203.03577	1168.22388	-462.18697	189.97707	1239.53224	-232.32145	188.57849	1146.47026	-176.95269	358.86711	1308.42316	-328.08586	410.62366	1066.21162	-332.23892	423.98449	988.99826	-294.00984	413.9056	911.84052	-294.22771	360.94009	797.04445	-172.16064	433.24898	794.29489	-177.84103	416.75388	758.11028	-116.46474	29.90855	1304.24622	-340.11402	-6.67284	1111.48186	-424.47105	-40.77548	985.05791	-396.88541	-47.30696	891.38603	-401.58684	5.42166	755.03792	-334.00009	-68.63895	747.77946	-344.1061	-57.05458	705.85632	-316.51106	324.46033	902.74223	-255.35318	59.91087	911.79649	-246.59084	265.44445	975.69542	-419.83334	100.01944	986.63246	-422.22641	312.32832	629.90326	-446.5324	315.05156	472.98794	-429.94228	256.95301	290.27216	-514.12975	271.01099	212.27949	-664.5639	209.40578	212.72276	-731.50009	222.68747	55.26925	-622.84424	57.51171	616.28727	-320.10799	93.34715	494.80118	-168.12849	112.48393	322.26482	-143.76912	114.57714	120.25969	-159.1608	166.69838	67.17702	-217.44421	138.35673	56.77285	-20.72245
103	3.41	270.09594	1580.02792	-246.02346	100.0841	1564.92035	-221.30556	284.96536	1536.60995	-363.90892	66.80048	1538.1601	-314.65118	257.7766	1303.06854	-237.70973	122.76169	1297.043	-244.24685	264.05514	1344.41315	-362.65026	113.81795	1340.05646	-362.01729	202.86907	1173.55385	-418.36521	189.85056	1250.70114	-189.73095	188.23486	1157.99515	-133.60697	359.12361	1318.85574	-286.1441	409.72206	1078.45238	-295.49139	421.50425	999.14154	-261.80552	411.03622	922.57492	-267.4296	358.92925	799.2424	-153.0607	431.01868	796.88728	-159.98901	413.94463	754.71092	-101.20726	30.1742	1312.18536	-298.30328	-8.5137	1117.14516	-376.23394	-41.51691	992.29149	-345.55504	-49.1319	899.00253	-348.46748	1.31736	763.24821	-278.09696	-72.58282	757.00943	-288.53312	-60.87329	714.39377	-260.76824	320.45193	907.22176	-213.89334	55.89641	917.31285	-205.43293	263.90415	980.38574	-377.99751	99.02706	993.40065	-379.74579	312.32672	624.07185	-389.08192	318.96351	469.19292	-358.39531	264.86063	294.44027	-451.55357	277.82995	234.32507	-610.6953	217.08683	244.55332	-674.37218	229.62337	65.83791	-601.12251	55.9133	622.47581	-292.05341	91.44246	492.88109	-146.45243	111.86178	320.16228	-129.65657	115.51898	119.36386	-155.11589	167.87632	68.69388	-215.76107	141.39055	54.61979	-18.72981
